# This file uses centimeters as units for non-parametric coordinates.

mtllib leaves.mtl
g default
v 0.007476 0.003906 0.070128
v 2.114764 1.343918 0.297933
v 0.006066 0.006997 0.070995
v 2.107665 1.360281 0.304578
v -0.040027 0.067893 -0.013500
v 2.004598 1.393539 0.190415
v -0.038612 0.064789 -0.014370
v 2.011660 1.377169 0.183690
v 1.238933 0.844197 0.357556
v 0.357275 0.220530 0.272909
v 0.351777 0.233424 0.278773
v 1.230000 0.859660 0.364641
v 0.126861 0.497932 -0.159959
v 0.860037 1.128323 -0.132793
v 0.132433 0.484740 -0.164061
v 0.868589 1.113108 -0.139144
v 0.967320 0.733140 0.330765
v 0.627571 0.472374 0.326898
v 0.621736 0.486940 0.333915
v 0.960638 0.748210 0.338444
v 0.306751 0.755491 -0.190221
v 0.583995 0.983963 -0.189057
v 0.312610 0.740468 -0.195431
v 0.590804 0.968282 -0.195109
v 1.441963 1.180881 0.006229
v 1.748046 1.101484 0.324874
v 1.752812 1.081339 0.317662
v 1.449452 1.163519 -0.001035
v 2.118939 1.410543 0.262362
v -0.015388 0.034286 0.029023
v 2.125390 1.393908 0.255556
v 0.343357 0.243311 0.284955
v 0.003703 0.009414 0.071728
v 0.215337 0.352007 0.047725
v -0.017550 0.036593 0.029794
v 2.111294 1.429089 0.270125
v 1.729019 1.245019 0.184420
v 1.744081 1.122181 0.332892
v 2.100843 1.379241 0.312565
v 0.955250 0.764745 0.346389
v 0.615200 0.501689 0.341078
v 0.755166 0.910958 0.047811
v 0.434670 0.618879 0.047261
v 1.227078 0.880213 0.372563
v 1.129105 1.036021 0.131543
v 1.438521 1.201509 0.014308
v 1.997716 1.412641 0.198265
v 0.857003 1.147237 -0.125278
v 0.579187 1.001951 -0.182607
v 0.300381 0.770511 -0.184561
v 0.118732 0.507869 -0.154856
v -0.042291 0.070266 -0.012637
v -0.004301 0.246228 -0.068008
v -1.980246 1.391466 -0.906774
v -0.005096 0.247944 -0.065055
v -1.983636 1.402417 -0.891580
v -0.060896 0.189205 0.014997
v -2.003725 1.291334 -0.781949
v -0.060097 0.187484 0.012033
v -2.000349 1.280300 -0.797112
v -1.109031 1.207585 -0.529210
v -0.244057 0.605665 -0.222048
v -0.246471 0.614862 -0.210196
v -1.110570 1.218053 -0.513174
v -0.510504 0.291333 0.162165
v -1.324305 0.806266 -0.020629
v -0.507060 0.283549 0.149939
v -1.322334 0.796585 -0.036263
v -0.895811 1.059725 -0.384144
v -0.535410 0.835994 -0.280881
v -0.538146 0.846921 -0.267812
v -0.898076 1.071122 -0.370155
v -0.796458 0.424499 0.183644
v -1.101982 0.610160 0.109175
v -0.792529 0.415042 0.170143
v -1.098579 0.599939 0.094586
v -1.636453 0.894412 -0.460592
v -1.599640 1.215030 -0.772642
v -1.592728 1.201352 -0.788315
v -1.632937 0.882596 -0.476665
v -2.044001 1.390527 -0.866080
v -0.031692 0.217865 -0.028252
v -2.040145 1.379151 -0.880925
v -0.245096 0.622281 -0.197951
v -0.004974 0.249006 -0.061766
v -0.361719 0.430883 -0.012889
v -0.031593 0.218964 -0.025190
v -2.047956 1.403244 -0.849189
v -1.752839 1.150581 -0.658326
v -1.606968 1.229851 -0.757311
v -1.988219 1.415720 -0.875092
v -0.901904 1.083716 -0.356287
v -0.540539 0.857770 -0.254097
v -1.032776 0.836189 -0.087127
v -0.661171 0.606285 -0.018581
v -1.118444 1.233000 -0.498740
v -1.285990 1.052824 -0.308163
v -1.644002 0.909391 -0.445718
v -2.008435 1.304565 -0.765316
v -1.331242 0.820125 -0.007093
v -1.107836 0.622238 0.123602
v -0.799872 0.434210 0.197510
v -0.509863 0.297915 0.174294
v -0.060737 0.190386 0.018173
vt 0.754248 0.250000
vt 0.754207 0.000000
vt 0.875000 0.000000
vt 0.875000 0.250000
vt 0.125000 0.000000
vt 0.375000 0.000000
vt 0.375000 0.250000
vt 0.254707 0.250000
vt 0.125000 0.250000
vt 0.450005 0.000000
vt 0.450005 0.250000
vt 0.375000 0.250000
vt 0.450005 0.250000
vt 0.450005 0.373182
vt 0.375000 0.370293
vt 0.375000 0.500000
vt 0.450005 0.500000
vt 0.450005 0.750000
vt 0.375000 0.750000
vt 0.450005 1.000000
vt 0.375000 1.000000
vt 0.591012 0.250000
vt 0.590661 0.000000
vt 0.625000 0.000000
vt 0.625000 0.250000
vt 0.625000 0.379248
vt 0.590440 0.375332
vt 0.591012 0.250000
vt 0.625000 0.250000
vt 0.589763 0.750000
vt 0.589871 0.500000
vt 0.625000 0.500000
vt 0.625000 0.750000
vt 0.590661 1.000000
vt 0.625000 0.870794
vt 0.625000 1.000000
vt 0.519996 1.000000
vt 0.501584 0.992078
vt 0.482610 0.750000
vt 0.519996 0.750000
vt 0.482610 0.000000
vt 0.519996 0.000000
vt 0.519996 0.250000
vt 0.482610 0.250000
vt 0.482610 0.250000
vt 0.519996 0.250000
vt 0.519995 0.374519
vt 0.482611 0.373934
vt 0.482611 0.500000
vt 0.519995 0.500000
vt 0.549995 0.000000
vt 0.549995 0.250000
vt 0.549995 0.250000
vt 0.549995 0.374957
vt 0.549995 0.500000
vt 0.549995 0.750000
vt 0.549995 1.000000
vt 0.482610 1.000000
vt 0.589871 0.500000
vt 0.625000 0.500000
vt 0.549995 0.500000
vt 0.519995 0.500000
vt 0.482611 0.500000
vt 0.450005 0.500000
vt 0.375000 0.500000
vt 0.375000 0.370293
vt 0.625000 0.379248
vt 0.754248 0.250000
vt 0.754207 0.000000
vt 0.875000 0.000000
vt 0.875000 0.250000
vt 0.125000 0.000000
vt 0.375000 0.000000
vt 0.375000 0.250000
vt 0.254707 0.250000
vt 0.125000 0.250000
vt 0.450005 0.000000
vt 0.450005 0.250000
vt 0.375000 0.250000
vt 0.450005 0.250000
vt 0.450005 0.373182
vt 0.375000 0.370293
vt 0.375000 0.500000
vt 0.450005 0.500000
vt 0.450005 0.750000
vt 0.375000 0.750000
vt 0.450005 1.000000
vt 0.375000 1.000000
vt 0.591012 0.250000
vt 0.590661 0.000000
vt 0.625000 0.000000
vt 0.625000 0.250000
vt 0.625000 0.379248
vt 0.590440 0.375332
vt 0.591012 0.250000
vt 0.625000 0.250000
vt 0.589763 0.750000
vt 0.589871 0.500000
vt 0.625000 0.500000
vt 0.625000 0.750000
vt 0.590661 1.000000
vt 0.625000 0.870794
vt 0.625000 1.000000
vt 0.519996 1.000000
vt 0.501584 0.992078
vt 0.482610 0.750000
vt 0.519996 0.750000
vt 0.482610 0.000000
vt 0.519996 0.000000
vt 0.519996 0.250000
vt 0.482610 0.250000
vt 0.482610 0.250000
vt 0.519996 0.250000
vt 0.519995 0.374519
vt 0.482611 0.373934
vt 0.482611 0.500000
vt 0.519995 0.500000
vt 0.549995 0.000000
vt 0.549995 0.250000
vt 0.549995 0.250000
vt 0.549995 0.374957
vt 0.549995 0.500000
vt 0.549995 0.750000
vt 0.549995 1.000000
vt 0.482610 1.000000
vt 0.589871 0.500000
vt 0.625000 0.500000
vt 0.549995 0.500000
vt 0.519995 0.500000
vt 0.482611 0.500000
vt 0.450005 0.500000
vt 0.375000 0.500000
vt 0.375000 0.370293
vt 0.625000 0.379248
vn 0.716529 0.488398 -0.498050
vn 0.755809 0.488978 -0.435493
vn 0.413886 0.485226 -0.770230
vn 0.415201 0.482837 -0.771023
vn -0.877379 -0.455678 0.150210
vn -0.877379 -0.455678 0.150210
vn -0.844879 -0.527838 0.086981
vn -0.827460 -0.559166 0.051405
vn -0.805606 -0.592451 -0.000502
vn -0.217799 -0.457168 0.862300
vn -0.044254 -0.422612 0.905230
vn 0.040980 -0.436451 0.898794
vn -0.172628 -0.509919 0.842723
vn -0.672954 0.456490 0.582022
vn -0.636328 0.504561 0.583528
vn -0.626083 0.480620 0.614023
vn -0.653514 0.447394 0.610540
vn -0.595615 -0.041877 -0.802178
vn -0.466620 0.069660 -0.881710
vn -0.534710 0.040184 -0.844079
vn -0.620061 -0.026674 -0.784100
vn 0.632395 -0.465803 -0.618954
vn 0.609767 -0.494954 -0.619035
vn 0.610941 -0.493485 -0.619051
vn 0.632395 -0.465803 -0.618954
vn 0.232141 -0.297751 0.925989
vn 0.222320 -0.286696 0.931869
vn 0.248238 -0.272187 0.929673
vn 0.258743 -0.286967 0.922335
vn -0.447486 0.661924 0.601343
vn -0.362277 0.720036 0.591865
vn -0.331214 0.718685 0.611383
vn -0.446500 0.658199 0.606145
vn 0.148507 0.437755 -0.886745
vn 0.157332 0.416638 -0.895354
vn 0.139180 0.412709 -0.900167
vn 0.131295 0.427561 -0.894401
vn 0.352988 -0.734427 -0.579670
vn 0.282549 -0.777986 -0.561163
vn 0.449972 -0.662381 -0.598980
vn 0.449972 -0.662381 -0.598980
vn 0.449972 -0.662381 -0.598980
vn 0.446335 -0.642892 -0.622475
vn 0.534944 -0.573656 -0.620285
vn 0.540212 -0.568604 -0.620372
vn 0.464559 -0.631356 -0.620946
vn 0.201646 -0.355177 0.912791
vn 0.183651 -0.367423 0.911742
vn 0.177541 -0.363884 0.914367
vn 0.216457 -0.357494 0.908485
vn -0.555195 0.578947 0.597143
vn -0.443864 0.662027 0.603908
vn -0.462486 0.629771 0.624096
vn -0.556586 0.553713 0.619366
vn -0.285886 0.221724 -0.932259
vn -0.115496 0.313639 -0.942492
vn -0.122760 0.309037 -0.943094
vn -0.299654 0.201593 -0.932506
vn -0.044254 -0.422612 0.905230
vn 0.201646 -0.355177 0.912791
vn 0.216457 -0.357494 0.908485
vn 0.040980 -0.436451 0.898794
vn 0.183651 -0.367423 0.911742
vn 0.170236 -0.326926 0.929591
vn 0.161771 -0.338806 0.926844
vn 0.177541 -0.363884 0.914367
vn -0.636328 0.504561 0.583528
vn -0.555195 0.578947 0.597143
vn -0.556586 0.553713 0.619366
vn -0.626083 0.480620 0.614023
vn -0.443864 0.662027 0.603908
vn -0.328346 0.723558 0.607168
vn -0.319754 0.757574 0.569069
vn -0.462486 0.629771 0.624096
vn -0.466620 0.069660 -0.881710
vn -0.285886 0.221724 -0.932259
vn -0.299654 0.201593 -0.932506
vn -0.534710 0.040184 -0.844079
vn -0.115496 0.313639 -0.942492
vn 0.110875 0.395358 -0.911811
vn 0.116408 0.427293 -0.896588
vn -0.122760 0.309037 -0.943094
vn 0.304009 -0.757230 -0.578084
vn 0.446335 -0.642892 -0.622475
vn 0.464559 -0.631356 -0.620946
vn 0.352547 -0.716732 -0.601669
vn 0.534944 -0.573656 -0.620285
vn 0.610941 -0.493485 -0.619051
vn 0.609767 -0.494954 -0.619035
vn 0.540212 -0.568604 -0.620372
vn -0.362277 0.720036 0.591865
vn -0.319754 0.757574 0.569069
vn -0.328346 0.723558 0.607168
vn -0.331214 0.718685 0.611383
vn 0.161771 -0.338806 0.926844
vn 0.170236 -0.326926 0.929591
vn 0.222320 -0.286696 0.931869
vn 0.232141 -0.297751 0.925989
vn 0.304009 -0.757230 -0.578084
vn 0.352547 -0.716732 -0.601669
vn 0.282549 -0.777986 -0.561163
vn 0.352988 -0.734427 -0.579670
vn 0.116408 0.427293 -0.896588
vn 0.110875 0.395358 -0.911811
vn 0.157332 0.416638 -0.895354
vn 0.148507 0.437755 -0.886745
vn -0.271946 0.830702 0.485777
vn -0.362277 0.720036 0.591865
vn -0.447486 0.661924 0.601343
vn -0.450594 0.673940 0.585466
vn -0.373765 0.701733 0.606523
vn -0.319754 0.757574 0.569069
vn -0.362277 0.720036 0.591865
vn -0.271946 0.830702 0.485777
vn -0.462486 0.629771 0.624096
vn -0.319754 0.757574 0.569069
vn -0.373765 0.701733 0.606523
vn -0.475532 0.599723 0.643585
vn -0.556586 0.553713 0.619366
vn -0.462486 0.629771 0.624096
vn -0.475532 0.599723 0.643585
vn -0.539468 0.538538 0.647265
vn -0.626083 0.480620 0.614023
vn -0.556586 0.553713 0.619366
vn -0.539468 0.538538 0.647265
vn -0.596321 0.469782 0.650927
vn -0.653514 0.447394 0.610540
vn -0.626083 0.480620 0.614023
vn -0.596321 0.469782 0.650927
vn -0.626828 0.434635 0.646667
vn 0.878730 0.180790 0.441756
vn 0.755809 0.488978 -0.435493
vn 0.716529 0.488398 -0.498050
vn 0.883580 0.174495 0.434554
vn -0.172628 -0.509919 0.842723
vn 0.040980 -0.436451 0.898794
vn 0.064265 -0.459791 0.885699
vn -0.121632 -0.565160 0.815966
vn -0.827460 -0.559166 0.051405
vn -0.844879 -0.527838 0.086981
vn -0.731282 -0.678643 -0.068339
vn -0.737024 -0.670180 -0.087491
vn 0.232141 -0.297751 0.925989
vn 0.258743 -0.286967 0.922335
vn 0.266273 -0.297580 0.916812
vn 0.243962 -0.308272 0.919484
vn 0.883580 0.174495 0.434554
vn 0.716529 0.488398 -0.498050
vn 0.660544 0.490032 -0.568815
vn 0.890404 0.165371 0.424068
vn 0.216457 -0.357494 0.908485
vn 0.177541 -0.363884 0.914367
vn 0.158555 -0.362524 0.918388
vn 0.225925 -0.356261 0.906662
vn 0.040980 -0.436451 0.898794
vn 0.216457 -0.357494 0.908485
vn 0.225925 -0.356261 0.906662
vn 0.064265 -0.459791 0.885699
vn 0.177541 -0.363884 0.914367
vn 0.161771 -0.338806 0.926844
vn 0.182416 -0.335398 0.924247
vn 0.158555 -0.362524 0.918388
vn 0.161771 -0.338806 0.926844
vn 0.232141 -0.297751 0.925989
vn 0.243962 -0.308272 0.919484
vn 0.182416 -0.335398 0.924247
vn 0.716529 0.488398 -0.498050
vn 0.415201 0.482837 -0.771023
vn 0.416371 0.480703 -0.771726
vn 0.660544 0.490032 -0.568815
vn 0.139180 0.412709 -0.900167
vn 0.157332 0.416638 -0.895354
vn 0.161379 0.394296 -0.904703
vn 0.145566 0.400523 -0.904650
vn 0.157332 0.416638 -0.895354
vn 0.110875 0.395358 -0.911811
vn 0.135595 0.379332 -0.915271
vn 0.161379 0.394296 -0.904703
vn 0.110875 0.395358 -0.911811
vn -0.115496 0.313639 -0.942492
vn -0.083093 0.323741 -0.942490
vn 0.135595 0.379332 -0.915271
vn -0.115496 0.313639 -0.942492
vn -0.285886 0.221724 -0.932259
vn -0.270110 0.239886 -0.932467
vn -0.083093 0.323741 -0.942490
vn -0.285886 0.221724 -0.932259
vn -0.466620 0.069660 -0.881710
vn -0.454412 0.080609 -0.887137
vn -0.270110 0.239886 -0.932467
vn -0.466620 0.069660 -0.881710
vn -0.595615 -0.041877 -0.802178
vn -0.554695 -0.066319 -0.829406
vn -0.454412 0.080609 -0.887137
vn -0.805606 -0.592451 -0.000502
vn -0.827460 -0.559166 0.051405
vn -0.737024 -0.670180 -0.087491
vn -0.739816 -0.665746 -0.097234
vn -0.974965 -0.033842 -0.219770
vn -0.966518 0.030670 -0.254761
vn -0.936469 -0.349005 0.034937
vn -0.936046 -0.350374 0.032492
vn 0.871753 -0.294398 0.391634
vn 0.871753 -0.294398 0.391634
vn 0.869147 -0.371709 0.326215
vn 0.862093 -0.411429 0.295840
vn 0.845679 -0.464945 0.262016
vn 0.852538 0.491584 -0.177548
vn 0.755538 0.585755 -0.293348
vn 0.714002 0.595954 -0.367478
vn 0.851735 0.463647 -0.244088
vn 0.372501 0.524992 0.765262
vn 0.325351 0.553328 0.766796
vn 0.348913 0.572571 0.741904
vn 0.381616 0.550763 0.742314
vn -0.033515 -0.865926 0.499048
vn -0.222114 -0.852817 0.472618
vn -0.144351 -0.850961 0.505003
vn -0.020605 -0.850100 0.526218
vn -0.361740 -0.571453 -0.736604
vn -0.333041 -0.586783 -0.738085
vn -0.334456 -0.586047 -0.738030
vn -0.361740 -0.571453 -0.736604
vn 0.384752 0.765695 -0.515439
vn 0.366979 0.785697 -0.498003
vn 0.500139 0.750528 -0.431936
vn 0.500213 0.740549 -0.448748
vn 0.119386 0.688780 0.715073
vn -0.149011 0.754205 0.639508
vn -0.168843 0.821220 0.545060
vn 0.123658 0.691581 0.711635
vn -0.755538 -0.597393 0.268856
vn -0.738446 -0.615413 0.275617
vn -0.797592 -0.563871 0.214235
vn -0.799980 -0.554540 0.229168
vn 0.194515 -0.744511 -0.638645
vn 0.340775 -0.743854 -0.574938
vn -0.119321 -0.686289 -0.717474
vn -0.119321 -0.686289 -0.717474
vn -0.119321 -0.686289 -0.717474
vn -0.164442 -0.686589 -0.708205
vn -0.252229 -0.633357 -0.731601
vn -0.258809 -0.629720 -0.732442
vn -0.183573 -0.673761 -0.715784
vn 0.589607 0.678870 -0.437607
vn 0.610090 0.666272 -0.428803
vn 0.612829 0.669238 -0.420192
vn 0.582396 0.677857 -0.448691
vn 0.252843 0.611332 0.749896
vn 0.125859 0.683331 0.719179
vn 0.177257 0.681039 0.710469
vn 0.277178 0.618133 0.735584
vn -0.465082 -0.778664 0.421167
vn -0.632511 -0.696973 0.337873
vn -0.624923 -0.701452 0.342690
vn -0.440842 -0.792441 0.421539
vn 0.755538 0.585755 -0.293348
vn 0.589607 0.678870 -0.437607
vn 0.582396 0.677857 -0.448691
vn 0.714002 0.595954 -0.367478
vn 0.610090 0.666272 -0.428803
vn 0.401237 0.767882 -0.499366
vn 0.453025 0.737710 -0.500552
vn 0.612829 0.669238 -0.420192
vn 0.325351 0.553328 0.766796
vn 0.252843 0.611332 0.749896
vn 0.277178 0.618133 0.735584
vn 0.348913 0.572571 0.741904
vn 0.125859 0.683331 0.719179
vn -0.118509 0.797336 0.591786
vn -0.227779 0.738756 0.634315
vn 0.177257 0.681039 0.710469
vn -0.222114 -0.852817 0.472618
vn -0.465082 -0.778664 0.421167
vn -0.440842 -0.792441 0.421539
vn -0.144351 -0.850961 0.505003
vn -0.632511 -0.696973 0.337873
vn -0.688530 -0.654804 0.311703
vn -0.683411 -0.655616 0.321119
vn -0.624923 -0.701452 0.342690
vn 0.241921 -0.754437 -0.610163
vn -0.164442 -0.686589 -0.708205
vn -0.183573 -0.673761 -0.715784
vn 0.105448 -0.751050 -0.651770
vn -0.252229 -0.633357 -0.731601
vn -0.334456 -0.586047 -0.738030
vn -0.333041 -0.586783 -0.738085
vn -0.258809 -0.629720 -0.732442
vn -0.149011 0.754205 0.639508
vn -0.227779 0.738756 0.634315
vn -0.118509 0.797336 0.591786
vn -0.168843 0.821220 0.545060
vn 0.453025 0.737710 -0.500552
vn 0.401237 0.767882 -0.499366
vn 0.366979 0.785697 -0.498003
vn 0.384752 0.765695 -0.515439
vn 0.241921 -0.754437 -0.610163
vn 0.105448 -0.751050 -0.651770
vn 0.340775 -0.743854 -0.574938
vn 0.194515 -0.744511 -0.638645
vn -0.683411 -0.655616 0.321119
vn -0.688530 -0.654804 0.311703
vn -0.738446 -0.615413 0.275617
vn -0.755538 -0.597393 0.268856
vn -0.467170 0.618190 0.632134
vn -0.149011 0.754205 0.639508
vn 0.119386 0.688780 0.715073
vn 0.105371 0.679431 0.726134
vn -0.087547 0.721990 0.686342
vn -0.227779 0.738756 0.634315
vn -0.149011 0.754205 0.639508
vn -0.467170 0.618190 0.632134
vn 0.177257 0.681039 0.710469
vn -0.227779 0.738756 0.634315
vn -0.087547 0.721990 0.686342
vn 0.217880 0.676976 0.703016
vn 0.277178 0.618133 0.735584
vn 0.177257 0.681039 0.710469
vn 0.217880 0.676976 0.703016
vn 0.289805 0.637230 0.714109
vn 0.348913 0.572571 0.741904
vn 0.277178 0.618133 0.735584
vn 0.289805 0.637230 0.714109
vn 0.357229 0.606412 0.710388
vn 0.381616 0.550763 0.742314
vn 0.348913 0.572571 0.741904
vn 0.357229 0.606412 0.710388
vn 0.392806 0.583413 0.710868
vn -0.397700 0.687844 -0.607211
vn -0.966518 0.030670 -0.254761
vn -0.974965 -0.033842 -0.219770
vn -0.399914 0.680164 -0.614366
vn 0.851735 0.463647 -0.244088
vn 0.714002 0.595954 -0.367478
vn 0.709379 0.581029 -0.398983
vn 0.845681 0.429941 -0.316188
vn 0.862093 -0.411429 0.295840
vn 0.869147 -0.371709 0.326215
vn 0.826216 -0.541456 0.155538
vn 0.814410 -0.555822 0.166730
vn 0.384752 0.765695 -0.515439
vn 0.500213 0.740549 -0.448748
vn 0.500147 0.733160 -0.460791
vn 0.402254 0.745284 -0.531737
vn -0.399914 0.680164 -0.614366
vn -0.974965 -0.033842 -0.219770
vn -0.979460 -0.108821 -0.169751
vn -0.403029 0.668937 -0.624573
vn 0.582396 0.677857 -0.448691
vn 0.612829 0.669238 -0.420192
vn 0.623822 0.669433 -0.403368
vn 0.577100 0.679465 -0.453082
vn 0.714002 0.595954 -0.367478
vn 0.582396 0.677857 -0.448691
vn 0.577100 0.679465 -0.453082
vn 0.709379 0.581029 -0.398983
vn 0.612829 0.669238 -0.420192
vn 0.453025 0.737710 -0.500552
vn 0.421378 0.733898 -0.532762
vn 0.623822 0.669433 -0.403368
vn 0.453025 0.737710 -0.500552
vn 0.384752 0.765695 -0.515439
vn 0.402254 0.745284 -0.531737
vn 0.421378 0.733898 -0.532762
vn -0.974965 -0.033842 -0.219770
vn -0.936046 -0.350374 0.032492
vn -0.935663 -0.351592 0.030311
vn -0.979460 -0.108821 -0.169751
vn -0.797592 -0.563871 0.214235
vn -0.738446 -0.615413 0.275617
vn -0.740420 -0.617776 0.264821
vn -0.795462 -0.571335 0.202030
vn -0.738446 -0.615413 0.275617
vn -0.688530 -0.654804 0.311703
vn -0.683262 -0.658934 0.314577
vn -0.740420 -0.617776 0.264821
vn -0.688530 -0.654804 0.311703
vn -0.632511 -0.696973 0.337873
vn -0.657571 -0.683995 0.315834
vn -0.683262 -0.658934 0.314577
vn -0.632511 -0.696973 0.337873
vn -0.465082 -0.778664 0.421167
vn -0.488942 -0.765847 0.417628
vn -0.657571 -0.683995 0.315834
vn -0.465082 -0.778664 0.421167
vn -0.222114 -0.852817 0.472618
vn -0.239127 -0.849405 0.470457
vn -0.488942 -0.765847 0.417628
vn -0.222114 -0.852817 0.472618
vn -0.033515 -0.865926 0.499048
vn -0.054279 -0.889367 0.453960
vn -0.239127 -0.849405 0.470457
vn 0.845679 -0.464945 0.262016
vn 0.862093 -0.411429 0.295840
vn 0.814410 -0.555822 0.166730
vn 0.808247 -0.563040 0.172403
s off
g leaves:polySurface1
usemtl leaves:lambert2SG
f 29/1/1 31/2/2 8/3/3 6/4/4
f 7/5/5 1/6/6 3/7/7 30/8/8 5/9/9
f 1/6/10 10/10/11 11/11/12 3/7/13
f 33/12/14 32/13/15 34/14/16 35/15/17
f 5/16/18 13/17/19 15/18/20 7/19/21
f 7/19/22 15/18/23 10/20/24 1/21/25
f 26/22/26 27/23/27 2/24/28 4/25/29
f 36/26/30 37/27/31 38/28/32 39/29/33
f 28/30/34 25/31/35 6/32/36 8/33/37
f 27/34/38 28/30/39 8/33/40 31/35/41 2/36/42
f 17/37/43 18/38/44 23/39/45 24/40/46
f 18/41/47 17/42/48 20/43/49 19/44/50
f 41/45/51 40/46/52 42/47/53 43/48/54
f 21/49/55 22/50/56 24/40/57 23/39/58
f 10/10/59 18/41/60 19/44/61 11/11/62
f 17/42/63 9/51/64 12/52/65 20/43/66
f 32/13/67 41/45/68 43/48/69 34/14/70
f 40/46/71 44/53/72 45/54/73 42/47/74
f 13/17/75 21/49/76 23/39/77 15/18/78
f 22/50/79 14/55/80 16/56/81 24/40/82
f 9/57/83 17/37/84 24/40/85 16/56/86
f 18/58/87 10/20/88 15/18/89 23/39/90
f 37/27/91 45/54/92 44/53/93 38/28/94
f 12/52/95 9/51/96 27/23/97 26/22/98
f 9/57/99 16/56/100 28/30/101 27/34/102
f 16/56/103 14/55/104 25/31/105 28/30/106
f 46/59/107 37/27/108 36/26/109 47/60/110
f 48/61/111 45/54/112 37/27/113 46/59/114
f 42/47/115 45/54/116 48/61/117 49/62/118
f 43/48/119 42/47/120 49/62/121 50/63/122
f 34/14/123 43/48/124 50/63/125 51/64/126
f 35/15/127 34/14/128 51/64/129 52/65/130
f 2/24/131 31/2/132 29/1/133 4/25/134
f 3/7/135 11/11/136 32/13/137 33/12/138
f 30/66/139 3/7/140 33/12/141 35/15/142
f 26/22/143 4/25/144 39/29/145 38/28/146
f 4/25/147 29/67/148 36/26/149 39/29/150
f 19/44/151 20/43/152 40/46/153 41/45/154
f 11/11/155 19/44/156 41/45/157 32/13/158
f 20/43/159 12/52/160 44/53/161 40/46/162
f 12/52/163 26/22/164 38/28/165 44/53/166
f 29/67/167 6/32/168 47/60/169 36/26/170
f 6/32/171 25/31/172 46/59/173 47/60/174
f 25/31/175 14/55/176 48/61/177 46/59/178
f 14/55/179 22/50/180 49/62/181 48/61/182
f 22/50/183 21/49/184 50/63/185 49/62/186
f 21/49/187 13/17/188 51/64/189 50/63/190
f 13/17/191 5/16/192 52/65/193 51/64/194
f 5/16/195 30/66/196 35/15/197 52/65/198
f 81/68/199 83/69/200 60/70/201 58/71/202
f 59/72/203 53/73/204 55/74/205 82/75/206 57/76/207
f 53/73/208 62/77/209 63/78/210 55/74/211
f 85/79/212 84/80/213 86/81/214 87/82/215
f 57/83/216 65/84/217 67/85/218 59/86/219
f 59/86/220 67/85/221 62/87/222 53/88/223
f 78/89/224 79/90/225 54/91/226 56/92/227
f 88/93/228 89/94/229 90/95/230 91/96/231
f 80/97/232 77/98/233 58/99/234 60/100/235
f 79/101/236 80/97/237 60/100/238 83/102/239 54/103/240
f 69/104/241 70/105/242 75/106/243 76/107/244
f 70/108/245 69/109/246 72/110/247 71/111/248
f 93/112/249 92/113/250 94/114/251 95/115/252
f 73/116/253 74/117/254 76/107/255 75/106/256
f 62/77/257 70/108/258 71/111/259 63/78/260
f 69/109/261 61/118/262 64/119/263 72/110/264
f 84/80/265 93/112/266 95/115/267 86/81/268
f 92/113/269 96/120/270 97/121/271 94/114/272
f 65/84/273 73/116/274 75/106/275 67/85/276
f 74/117/277 66/122/278 68/123/279 76/107/280
f 61/124/281 69/104/282 76/107/283 68/123/284
f 70/125/285 62/87/286 67/85/287 75/106/288
f 89/94/289 97/121/290 96/120/291 90/95/292
f 64/119/293 61/118/294 79/90/295 78/89/296
f 61/124/297 68/123/298 80/97/299 79/101/300
f 68/123/301 66/122/302 77/98/303 80/97/304
f 98/126/305 89/94/306 88/93/307 99/127/308
f 100/128/309 97/121/310 89/94/311 98/126/312
f 94/114/313 97/121/314 100/128/315 101/129/316
f 95/115/317 94/114/318 101/129/319 102/130/320
f 86/81/321 95/115/322 102/130/323 103/131/324
f 87/82/325 86/81/326 103/131/327 104/132/328
f 54/91/329 83/69/330 81/68/331 56/92/332
f 55/74/333 63/78/334 84/80/335 85/79/336
f 82/133/337 55/74/338 85/79/339 87/82/340
f 78/89/341 56/92/342 91/96/343 90/95/344
f 56/92/345 81/134/346 88/93/347 91/96/348
f 71/111/349 72/110/350 92/113/351 93/112/352
f 63/78/353 71/111/354 93/112/355 84/80/356
f 72/110/357 64/119/358 96/120/359 92/113/360
f 64/119/361 78/89/362 90/95/363 96/120/364
f 81/134/365 58/99/366 99/127/367 88/93/368
f 58/99/369 77/98/370 98/126/371 99/127/372
f 77/98/373 66/122/374 100/128/375 98/126/376
f 66/122/377 74/117/378 101/129/379 100/128/380
f 74/117/381 73/116/382 102/130/383 101/129/384
f 73/116/385 65/84/386 103/131/387 102/130/388
f 65/84/389 57/83/390 104/132/391 103/131/392
f 57/83/393 82/133/394 87/82/395 104/132/396
